<?xml version="1.0" encoding="utf-8"?>
<!-- Generator: Adobe Illustrator 26.2.1, SVG Export Plug-In . SVG Version: 6.00 Build 0)  -->
<svg version="1.1" id="Capa_1" xmlns="http://www.w3.org/2000/svg" xmlns:xlink="http://www.w3.org/1999/xlink" x="0px" y="0px"
	 viewBox="0 0 750 500" style="enable-background:new 0 0 750 500;" xml:space="preserve">
<style type="text/css">
	.st0{fill:#263238;}
	.st1{fill:#54A396;}
	.st2{opacity:0.2;fill:#54A396;enable-background:new    ;}
	.st3{fill:#FFFFFF;}
	.st4{fill:#455A64;}
	.st5{fill:#C7C7C7;}
	.st6{fill:#229FBC;}
	.st7{fill:#EBEBEB;}
	.st8{opacity:0.1;enable-background:new    ;}
	.st9{fill:#DBDBDB;}
	.st10{opacity:0.2;enable-background:new    ;}
	.st11{fill:#F8F8F8;}
	.st12{fill:#37474F;}
	.st13{fill:#5F6060;}
	.st14{fill:#F7A9A0;}
	.st15{fill:#FF9BBC;}
	.st16{fill:#A6A6A6;}
</style>
<g id="freepik--Floor--inject-7">
	<path class="st0" d="M49.8,443.8c208.3-0.6,442-0.6,650.4,0C491.9,444.4,258.2,444.4,49.8,443.8z"/>
</g>
<g id="freepik--Bag--inject-7">
	<polygon class="st1" points="49.8,443.8 221.5,443.8 196.4,268.9 74.8,268.9 	"/>
	<polygon class="st1" points="74.8,268.9 93.9,443.8 49.8,443.8 	"/>
	<polygon class="st2" points="74.8,268.9 93.9,443.8 49.8,443.8 	"/>
	<path class="st0" d="M162.2,281l5.4-1.1c0-0.1-3.1-14.8-6.5-29.7c-3.6-16-19.4-23.4-32.5-21.3c-9.9,1.6-20.8,9.3-19.1,25.7
		c1.8,17.6,3.1,25.9,3.2,26.2l5.4-0.9c0-0.1-1.4-8.5-3.1-25.9c-1.3-12.6,6.7-18.5,14.6-19.8c10.6-1.7,23.4,4.2,26.3,17.1
		C159.1,266.2,162.2,280.8,162.2,281z"/>
	<path class="st0" d="M91.6,442.4c-3.5-2.5-7.2-4.8-10.8-7.1s-7.4-4.5-11.1-6.6l-0.5-0.3l-0.5,0.4c-2.9,2.2-5.8,4.4-8.6,6.6
		s-5.7,4.6-8.4,7c3.1-1.9,6.2-3.9,9.2-5.9s6-4.1,8.9-6.3l-1,0.1c3.7,2.2,7.5,4.3,11.3,6.3C83.8,438.6,87.7,440.6,91.6,442.4z"/>
	<path class="st0" d="M69.2,429.5c0.8-11.1,1.3-22.3,1.8-33.5s0.9-22.3,1.3-33.5c0.3-11.2,0.7-22.3,0.9-33.5l0.3-16.8
		c0-5.6,0.1-11.2,0.1-16.8c-0.4,5.6-0.7,11.1-1,16.7L71.9,329c-0.5,11.1-0.9,22.3-1.3,33.5s-0.7,22.3-0.9,33.5
		S69.2,418.3,69.2,429.5z"/>
	<path class="st1" d="M157.6,280.4c0,4,3.3,7.3,7.3,7.3c4,0,7.3-3.3,7.3-7.3c0-4-3.3-7.3-7.3-7.3
		C160.9,273.1,157.6,276.4,157.6,280.4C157.6,280.4,157.6,280.4,157.6,280.4z"/>
	<path class="st1" d="M108.6,280.4c0,4,3.3,7.3,7.3,7.3c4,0,7.3-3.3,7.3-7.3c0-4-3.3-7.3-7.3-7.3
		C111.8,273.1,108.6,276.4,108.6,280.4C108.5,280.4,108.5,280.4,108.6,280.4z"/>
</g>
<path class="st0" d="M140.3,112.5h469.3c7.1,0,12.9,5.8,12.9,12.9v305.5c0,7.1-5.8,12.9-12.9,12.9H140.3c-7.1,0-12.9-5.8-12.9-12.9
	V125.4C127.4,118.3,133.2,112.5,140.3,112.5z"/>
<rect x="162.1" y="126.5" class="st3" width="426.1" height="302.9"/>
<rect x="162.1" y="126.5" class="st3" width="426.1" height="302.9"/>
<rect x="162.1" y="126.5" class="st4" width="426.1" height="10.4"/>
<path class="st5" d="M170.3,131.7c0,1.2-1,2.1-2.1,2.1c-1.2,0-2.1-1-2.1-2.1c0-1.2,1-2.1,2.1-2.1S170.3,130.5,170.3,131.7
	C170.3,131.7,170.3,131.7,170.3,131.7z"/>
<circle class="st3" cx="176.9" cy="131.7" r="2.1"/>
<circle class="st6" cx="185.6" cy="131.7" r="2.1"/>
<rect x="448.5" y="228.5" class="st3" width="112.4" height="144.9"/>
<path class="st5" d="M560.9,373.4c-0.1,0-112.4,0.1-112.5,0.1s-0.1-144.9-0.1-145v-0.2h0.2c0.1,0,112.4,0.1,112.5,0.1
	S560.8,373.3,560.9,373.4L560.9,373.4z M560.9,373.4l-0.1-144.9c1,0.3-112.5,0.2-112.2,0.2l0.2-0.2l-0.1,144.9
	C447.9,373.3,561.1,373.4,560.9,373.4z"/>
<rect x="451.9" y="231.5" class="st7" width="105.5" height="105.5"/>
<rect x="518.5" y="357.2" class="st3" width="39" height="10.4"/>
<path class="st5" d="M557.5,367.6c-9.7,0.1-29.3,0.2-39,0.2h-0.2v-0.2v-10.4V357h0.2l39.1,0.1v0.1L557.5,367.6L557.5,367.6z
	 M557.5,367.6l-0.1-10.4l0.1,0.1l-39,0.1l0.2-0.2v10.4l-0.2-0.2l19.5,0.1L557.5,367.6L557.5,367.6z"/>
<path class="st5" d="M451.9,343c16.6-0.7,33.3-0.7,49.8,0C485.2,343.7,468.5,343.7,451.9,343z"/>
<path class="st5" d="M451.9,348.8c23.1-0.3,48.5-0.3,71.6,0C500.4,349.1,475,349.1,451.9,348.8z"/>
<rect x="189.1" y="228.5" class="st3" width="112.4" height="144.9"/>
<path class="st5" d="M301.5,373.4c-0.1,0-112.4,0.1-112.5,0.1s-0.1-144.9-0.1-145v-0.2h0.2c0.1,0,112.4,0.1,112.5,0.1
	S301.4,373.3,301.5,373.4L301.5,373.4z M301.5,373.4l-0.1-144.9c1,0.3-112.5,0.2-112.2,0.2l0.2-0.2l-0.1,144.9
	C188.5,373.3,301.7,373.4,301.5,373.4z"/>
<rect x="192.5" y="231.5" class="st7" width="105.5" height="105.5"/>
<rect x="259" y="357.2" class="st3" width="39" height="10.4"/>
<path class="st5" d="M298.1,367.6c-9.7,0.1-29.3,0.2-39,0.2h-0.2v-0.2v-10.4V357h0.2l39.1,0.1v0.1L298.1,367.6L298.1,367.6z
	 M298.1,367.6l-0.1-10.4l0.1,0.1l-39,0.1l0.2-0.2v10.4l-0.2-0.2l19.5,0.1L298.1,367.6L298.1,367.6z"/>
<path class="st5" d="M192.5,343c16.6-0.7,33.3-0.7,49.8,0C225.8,343.7,209.1,343.7,192.5,343z"/>
<path class="st5" d="M192.5,348.8c23.1-0.3,48.5-0.3,71.6,0C241,349.1,215.6,349.1,192.5,348.8L192.5,348.8z"/>
<rect x="318.8" y="228.5" class="st3" width="112.4" height="144.9"/>
<path class="st5" d="M431.2,373.4c-0.1,0-112.4,0.1-112.5,0.1s-0.1-144.9-0.1-145v-0.2h0.2c0.1,0,112.4,0.1,112.5,0.1
	S431.1,373.3,431.2,373.4L431.2,373.4z M431.2,373.4L431,228.5c1,0.3-112.5,0.2-112.2,0.2l0.2-0.2l-0.1,144.9
	C318.2,373.3,431.3,373.4,431.2,373.4L431.2,373.4z"/>
<rect x="388.8" y="357.2" class="st3" width="39" height="10.4"/>
<path class="st5" d="M427.8,367.6c-9.7,0.1-29.3,0.2-39,0.2h-0.2v-0.2v-10.4V357h0.2l39.1,0.1v0.1L427.8,367.6L427.8,367.6z
	 M427.8,367.6l-0.1-10.4l0.1,0.1l-39,0.1l0.2-0.2v10.4l-0.2-0.2l19.5,0.1L427.8,367.6L427.8,367.6z"/>
<path class="st5" d="M322.2,343c16.6-0.7,33.3-0.7,49.8,0C355.5,343.7,338.8,343.7,322.2,343L322.2,343z"/>
<path class="st5" d="M322.2,348.8c23.1-0.3,48.5-0.3,71.6,0C370.7,349.1,345.3,349.1,322.2,348.8z"/>
<rect x="322.2" y="231.5" class="st7" width="105.5" height="105.5"/>
<rect x="250.6" y="187.1" class="st3" width="248.8" height="14"/>
<path class="st3" d="M499.5,201.2h-249v-14.3h249V201.2z"/>
<path class="st5" d="M499.5,201.2c-0.2-0.2-249.5,0.7-249.3,0v-14.3c-0.2-0.7,249.1,0.2,249.3,0L499.5,201.2L499.5,201.2z
	 M499.5,201.2v-14.3c0.2-0.2-250.1,0.7-248.8,0v14.3C249.2,200.5,500,201.4,499.5,201.2L499.5,201.2z"/>
<path class="st5" d="M494.5,197.2l-1,0.8l-1.9-2.5l-0.7-0.9c0.1-0.1,0.3-0.1,0.4-0.2c0.2-0.2,0.4-0.4,0.5-0.7l0.7,1L494.5,197.2z"/>
<path class="st5" d="M492.5,191.2c-0.9-1.3-2.7-1.5-4-0.6c-1.3,0.9-1.5,2.7-0.6,4c0.9,1.3,2.7,1.5,4,0.6c0.2-0.2,0.4-0.4,0.6-0.6
	C493.2,193.6,493.2,192.2,492.5,191.2z M491.2,194.3c-0.1,0.1-0.3,0.2-0.4,0.2c-0.9,0.3-1.8-0.1-2.2-1c-0.3-0.9,0.1-1.8,1-2.2
	c0.9-0.3,1.8,0.1,2.2,1c0.2,0.4,0.2,0.9,0,1.3C491.7,193.9,491.5,194.1,491.2,194.3L491.2,194.3z"/>
<rect x="253.6" y="189.8" class="st5" width="0.8" height="8.5"/>
<path class="st6" d="M552.6,197.6h-10.8c-0.2,0-0.4-0.1-0.5-0.3l-3.1-9.5h-2.5c-0.3,0-0.5-0.2-0.5-0.5s0.2-0.5,0.5-0.5l0,0h2.9
	c0.2,0,0.4,0.1,0.5,0.3l3.1,9.5h10.5c0.3,0,0.5,0.2,0.5,0.5C553.1,197.4,552.9,197.6,552.6,197.6z"/>
<path class="st6" d="M551.5,201.2c-0.8,0-1.5-0.7-1.5-1.5c0-0.8,0.7-1.5,1.5-1.5c0.8,0,1.5,0.7,1.5,1.5
	C553.1,200.5,552.4,201.2,551.5,201.2z M551.5,199.1c-0.3,0-0.6,0.2-0.6,0.6c0,0.3,0.2,0.6,0.6,0.6c0.3,0,0.6-0.2,0.6-0.6
	c0,0,0,0,0,0C552.1,199.4,551.9,199.1,551.5,199.1z"/>
<path class="st6" d="M542.6,201.2c-0.8,0-1.5-0.7-1.5-1.5c0-0.8,0.7-1.5,1.5-1.5c0.8,0,1.5,0.7,1.5,1.5
	C544.1,200.5,543.4,201.2,542.6,201.2z M542.6,199.1c-0.3,0-0.6,0.2-0.6,0.6c0,0.3,0.2,0.6,0.6,0.6c0.3,0,0.6-0.2,0.6-0.6
	c0,0,0,0,0,0C543.2,199.4,542.9,199.1,542.6,199.1z"/>
<polygon class="st6" points="555.2,188.6 552.8,196.1 542.6,196.1 540.2,188.6 548.1,188.6 "/>
<circle class="st4" cx="554.4" cy="188.3" r="3"/>
<path class="st3" d="M555.1,188c0.2,0.2,0.3,0.5,0.3,0.8c0,0.3-0.1,0.6-0.3,0.8c-0.4,0.4-1.1,0.4-1.5,0c-0.1-0.1-0.1-0.2,0-0.3
	c0.1-0.1,0.2-0.1,0.3,0c0,0,0,0,0,0c0.1,0.1,0.3,0.2,0.4,0.2c0.2,0,0.3-0.1,0.4-0.2c0.1-0.1,0.2-0.3,0.2-0.4c0-0.3-0.3-0.6-0.6-0.6
	c-0.1,0-0.1,0-0.2-0.1l0,0c-0.1-0.1-0.1-0.2,0-0.3c0,0,0,0,0,0l0.4-0.4h-0.7c-0.1,0-0.2-0.2-0.2-0.3c0-0.1,0.1-0.2,0.2-0.2h1.3
	c0.1,0,0.2,0.1,0.2,0.2c0,0,0,0.1,0,0.1c0,0,0,0,0,0.1l-0.5,0.6C554.9,187.9,555,187.9,555.1,188z"/>
<polygon class="st6" points="661.6,145.6 88.4,145.6 132.7,111.9 615.5,111.9 "/>
<polygon class="st7" points="213.3,111.9 176.6,145.6 132.5,145.6 172.5,111.9 "/>
<polygon class="st7" points="291.3,111.9 264.8,145.6 220.7,145.6 252.2,111.9 "/>
<polygon class="st7" points="357.5,111.9 353,145.6 308.9,145.6 322.9,111.9 "/>
<polygon class="st7" points="573.4,145.6 535.3,111.9 576.1,111.9 617.5,145.6 "/>
<polygon class="st7" points="485.2,145.6 461.7,111.9 497.6,111.9 529.3,145.6 "/>
<polygon class="st7" points="397,145.6 390.6,111.9 425.2,111.9 441.1,145.6 "/>
<path class="st6" d="M110.5,167.9L110.5,167.9c-12.2,0-22-9.8-22-22v-0.3h44.1v0.3C132.6,158,122.7,167.9,110.5,167.9
	C110.5,167.9,110.5,167.9,110.5,167.9z"/>
<path class="st8" d="M110.5,167.9L110.5,167.9c-12.2,0-22-9.8-22-22v-0.3h44.1v0.3C132.6,158,122.7,167.9,110.5,167.9
	C110.5,167.9,110.5,167.9,110.5,167.9z"/>
<path class="st9" d="M154.6,167.9L154.6,167.9c-12.2,0-22-9.8-22-22v-0.3h44.1v0.3C176.6,158,166.8,167.9,154.6,167.9
	C154.6,167.9,154.6,167.9,154.6,167.9z"/>
<path class="st6" d="M198.6,167.9L198.6,167.9c-12.2,0-22-9.8-22-22v-0.3h44.1v0.3C220.7,158,210.9,167.9,198.6,167.9
	C198.7,167.9,198.7,167.9,198.6,167.9z"/>
<path class="st8" d="M198.6,167.9L198.6,167.9c-12.2,0-22-9.8-22-22v-0.3h44.1v0.3C220.7,158,210.9,167.9,198.6,167.9
	C198.7,167.9,198.7,167.9,198.6,167.9z"/>
<path class="st9" d="M242.7,167.9L242.7,167.9c-12.2,0-22-9.8-22-22v-0.3h44.1v0.3C264.8,158,255,167.9,242.7,167.9
	C242.8,167.9,242.8,167.9,242.7,167.9z"/>
<path class="st6" d="M286.8,167.9L286.8,167.9c-12.2,0-22-9.8-22-22v-0.3h44.1v0.3C308.9,158,299.1,167.9,286.8,167.9
	C286.9,167.9,286.9,167.9,286.8,167.9z"/>
<path class="st8" d="M286.8,167.9L286.8,167.9c-12.2,0-22-9.8-22-22v-0.3h44.1v0.3C308.9,158,299.1,167.9,286.8,167.9
	C286.9,167.9,286.9,167.9,286.8,167.9z"/>
<path class="st9" d="M330.9,167.9L330.9,167.9c-12.2,0-22-9.8-22-22v-0.3H353v0.3C353,158,343.2,167.9,330.9,167.9
	C331,167.9,330.9,167.9,330.9,167.9z"/>
<path class="st6" d="M375,167.9L375,167.9c-12.2,0-22-9.8-22-22v-0.3h44v0.3C397,158,387.2,167.9,375,167.9z"/>
<path class="st8" d="M375,167.9L375,167.9c-12.2,0-22-9.8-22-22v-0.3h44v0.3C397,158,387.2,167.9,375,167.9z"/>
<path class="st9" d="M419.1,167.9L419.1,167.9c-12.2,0-22-9.8-22-22v-0.3h44.1v0.3C441.2,158,431.3,167.9,419.1,167.9
	C419.2,167.9,419.1,167.9,419.1,167.9z"/>
<path class="st6" d="M463.2,167.9L463.2,167.9c-12.2,0-22-9.8-22-21.9c0,0,0,0,0-0.1v-0.3h44.1v0.3
	C485.2,158,475.4,167.9,463.2,167.9C463.2,167.9,463.2,167.9,463.2,167.9z"/>
<path class="st8" d="M463.2,167.9L463.2,167.9c-12.2,0-22-9.8-22-21.9c0,0,0,0,0-0.1v-0.3h44.1v0.3
	C485.2,158,475.4,167.9,463.2,167.9C463.2,167.9,463.2,167.9,463.2,167.9z"/>
<path class="st9" d="M507.3,167.9L507.3,167.9c-12.2,0-22-9.8-22-22v-0.3h44.1v0.3C529.4,158,519.5,167.9,507.3,167.9
	C507.3,167.9,507.3,167.9,507.3,167.9z"/>
<path class="st6" d="M551.4,167.9L551.4,167.9c-12.2,0-22-9.8-22-21.9c0,0,0,0,0-0.1v-0.3h44.1v0.3
	C573.4,158,563.6,167.9,551.4,167.9C551.4,167.9,551.4,167.9,551.4,167.9z"/>
<path class="st8" d="M551.4,167.9L551.4,167.9c-12.2,0-22-9.8-22-21.9c0,0,0,0,0-0.1v-0.3h44.1v0.3
	C573.4,158,563.6,167.9,551.4,167.9C551.4,167.9,551.4,167.9,551.4,167.9z"/>
<path class="st9" d="M595.5,167.9L595.5,167.9c-12.2,0-22-9.8-22-21.9c0,0,0,0,0-0.1v-0.3h44.1v0.3
	C617.5,158,607.6,167.9,595.5,167.9C595.5,167.9,595.5,167.9,595.5,167.9z"/>
<path class="st6" d="M639.5,167.9L639.5,167.9c-12.2,0-22-9.8-22-22v-0.3h44.1v0.3C661.6,158,651.8,167.9,639.5,167.9
	C639.6,167.9,639.6,167.9,639.5,167.9z"/>
<path class="st8" d="M639.5,167.9L639.5,167.9c-12.2,0-22-9.8-22-22v-0.3h44.1v0.3C661.6,158,651.8,167.9,639.5,167.9
	C639.6,167.9,639.6,167.9,639.5,167.9z"/>
<path class="st6" d="M658.7,158.4l0.1,0.1C658.7,158.6,658.7,158.6,658.7,158.4l-0.1,0L658.7,158.4z"/>
<g id="freepik--credit-card--inject-7">
	<path class="st6" d="M701.2,78l-15.7,107.2c-0.9,6-6.4,10.1-12.4,9.3l-170-24.8c-6-0.9-10.1-6.5-9.3-12.4L509.5,50
		c0.8-5.6,6-9.4,11.6-8.6c0,0,0,0,0,0l171.5,25C698.2,67.2,702,72.4,701.2,78C701.2,78,701.2,78,701.2,78z"/>
	<path class="st10" d="M701.2,78l-15.7,107.2c-0.9,6-6.4,10.1-12.4,9.3l-170-24.8c-6-0.9-10.1-6.5-9.3-12.4L509.5,50
		c0.8-5.6,6-9.4,11.6-8.6c0,0,0,0,0,0l171.5,25C698.2,67.2,702,72.4,701.2,78C701.2,78,701.2,78,701.2,78z"/>
	<path class="st6" d="M528.6,61.3l27.7,4c2.3,0.3,3.9,2.5,3.5,4.8l-2.4,16.6c-0.3,2.3-2.5,3.9-4.8,3.5l-27.7-4
		c-2.3-0.3-3.9-2.5-3.5-4.8l2.4-16.6C524.1,62.5,526.3,60.9,528.6,61.3z"/>
	<path class="st11" d="M516.1,108l-1.6,0.7c-0.1,0-0.1,0-0.2,0c-0.1,0-0.2-0.1-0.3-0.2c-0.1-0.2,0-0.4,0.2-0.5c0,0,0,0,0,0l2.2-0.9
		c0.2-0.1,0.4,0,0.5,0.2c0,0.1,0,0.2,0,0.3l-1.4,9.6c0,0.2-0.2,0.3-0.4,0.3c-0.2,0-0.3-0.2-0.3-0.4c0,0,0,0,0,0L516.1,108z"/>
	<path class="st11" d="M518.1,117.2l5.5-3.7c1.2-0.8,1.6-2.5,0.8-3.7c-0.4-0.6-1.1-1.1-1.9-1.2c-0.7-0.1-1.4,0.1-1.9,0.4l-0.6,0.4
		c-0.2,0.1-0.4,0.1-0.5-0.1s-0.1-0.4,0.1-0.5l0,0l0.6-0.4c0.7-0.5,1.6-0.7,2.4-0.5c1.9,0.3,3.2,2,2.9,3.9c-0.1,1-0.7,1.8-1.5,2.4
		l-4.7,3.2l4.9,0.7c0.2,0,0.3,0.2,0.3,0.4c0,0.2-0.2,0.3-0.4,0.3l-5.8-0.8h-0.1c-0.1,0-0.2-0.1-0.2-0.2
		C517.9,117.6,518,117.4,518.1,117.2z"/>
	<path class="st11" d="M534.6,110.3l-3.1,2.4c1.6,0.6,2.6,2.2,2.3,3.9c-0.1,0.9-0.6,1.8-1.4,2.3c-0.8,0.6-1.7,0.8-2.7,0.7
		c-0.9-0.1-1.8-0.6-2.3-1.4c-0.1-0.2-0.1-0.4,0.1-0.5c0,0,0,0,0,0c0.2-0.1,0.4-0.1,0.5,0.1c0,0,0,0,0,0c0.9,1.2,2.7,1.5,4,0.6
		c0.6-0.4,1-1.1,1.1-1.9c0.1-0.7-0.1-1.5-0.5-2.1c-0.4-0.6-1.1-1-1.8-1.1c-0.1,0-0.2-0.1-0.3-0.2l0,0c-0.1-0.2-0.1-0.4,0.1-0.5
		c0,0,0,0,0,0l3-2.3l-4-0.6c-0.2,0-0.3-0.2-0.3-0.4c0,0,0,0,0,0c0-0.2,0.2-0.3,0.4-0.3l4.9,0.7c0.2,0,0.3,0.2,0.3,0.4
		c0,0.1,0,0.1-0.1,0.2C534.7,110.2,534.6,110.3,534.6,110.3z"/>
	<path class="st11" d="M542.2,119.2l-5.7-0.8h0c-0.1,0-0.2,0-0.2-0.1c-0.1-0.1-0.2-0.3,0-0.5c0,0,0,0,0,0l7.1-6.6l0,0
		c0.1-0.1,0.4-0.1,0.5,0c0,0,0,0,0,0c0,0.1,0.1,0.1,0.1,0.2c0,0,0,0,0,0.1l0,0l-1,7.2l0.7,0.1c0.2,0,0.3,0.2,0.3,0.4c0,0,0,0,0,0
		c0,0.2-0.2,0.3-0.4,0.3c0,0,0,0,0,0l-0.7-0.1l-0.3,1.8c0,0.2-0.2,0.3-0.4,0.3c-0.2,0-0.3-0.2-0.3-0.4L542.2,119.2z M542.3,118.5
		l0.9-6.1l-5.8,5.4L542.3,118.5z"/>
	<path class="st11" d="M555.2,122.2c-0.1-0.2-0.1-0.4,0.1-0.5c0,0,0,0,0,0c0.2-0.1,0.4-0.1,0.5,0.1c0,0,0,0,0,0
		c0.5,0.6,1.1,1,1.8,1.1c0.7,0.1,1.5-0.1,2.1-0.5c1.3-0.9,1.5-2.7,0.6-4c0,0,0,0,0,0c-0.9-1.3-2.7-1.5-4-0.6c0,0,0,0,0,0
		c-0.2,0.1-0.4,0.1-0.5-0.1c0,0,0,0,0,0c0,0-0.1-0.1-0.1-0.1l0,0l0,0c0,0,0-0.1,0-0.1c0,0,0,0,0-0.1l1.1-4.1c0-0.1,0.1-0.2,0.2-0.2
		c0.1-0.1,0.2-0.1,0.2-0.1l4.9,0.7c0.2,0,0.3,0.2,0.3,0.4c0,0.2-0.2,0.3-0.4,0.3c0,0,0,0,0,0l-4.5-0.7l-0.8,3
		c0.6-0.2,1.2-0.3,1.8-0.2c0.9,0.1,1.8,0.6,2.3,1.4c1.2,1.6,0.8,3.8-0.7,5c-0.8,0.6-1.7,0.8-2.7,0.7
		C556.5,123.5,555.7,123,555.2,122.2z"/>
	<path class="st11" d="M566.1,116.6c0.9-1.3,2.5-1.9,4-1.7c0.2,0,0.3,0.2,0.3,0.4c0,0,0,0,0,0c0,0.2-0.2,0.3-0.4,0.3
		c-1.3-0.2-2.6,0.4-3.3,1.4c-0.5,0.6-0.8,1.3-1,2c1.5-1.2,3.7-1.1,4.9,0.4c1.2,1.5,1.1,3.7-0.4,4.9s-3.7,1.1-4.9-0.4
		c-0.6-0.7-0.9-1.7-0.8-2.6c0-0.2,0-0.5,0.1-0.7C564.7,119.1,565.3,117.7,566.1,116.6z M565.1,121.3c0,0.1,0,0.1,0,0.2
		c0,0,0,0.1,0,0.1c0.1,1.5,1.4,2.7,2.9,2.6s2.7-1.4,2.6-2.9s-1.4-2.7-2.9-2.6C566.3,118.8,565.2,119.9,565.1,121.3L565.1,121.3z"/>
	<path class="st11" d="M574.7,125.6l5.2-8.6l-5-0.7c-0.2,0-0.3-0.2-0.3-0.4c0,0,0,0,0,0c0-0.2,0.2-0.3,0.4-0.3l5.5,0.8
		c0.1,0,0.1,0,0.2,0c0.1,0.1,0.1,0.2,0.2,0.2c0,0,0,0.1,0,0.1c0,0.1,0,0.1-0.1,0.2l-5.4,9c-0.1,0.1-0.2,0.2-0.4,0.2c0,0-0.1,0-0.1,0
		C574.7,126,574.7,125.8,574.7,125.6z"/>
	<path class="st11" d="M586.5,117.2c1.2,0.2,2,1.3,1.9,2.5c-0.1,0.7-0.5,1.3-1.2,1.6c1.6,1,2.2,3.1,1.2,4.7c-1,1.6-3.1,2.2-4.7,1.2
		c-1.2-0.7-1.8-2.1-1.6-3.4c0.2-1.4,1.2-2.5,2.5-2.8c-0.5-0.5-0.7-1.2-0.6-1.9C584.2,117.9,585.3,117,586.5,117.2
		C586.5,117.2,586.5,117.2,586.5,117.2z M585.1,126.9c1.5,0.2,2.8-0.8,3.1-2.3c0.2-1.5-0.8-2.8-2.3-3.1c-1.5-0.2-2.8,0.8-3.1,2.3
		c0,0,0,0,0,0C582.6,125.3,583.6,126.7,585.1,126.9C585.1,126.9,585.1,126.9,585.1,126.9z M586,120.9c0.8,0.1,1.6-0.5,1.7-1.3
		c0.1-0.8-0.4-1.5-1.2-1.7c-0.8-0.1-1.5,0.4-1.7,1.2c0,0,0,0,0,0C584.6,120,585.2,120.7,586,120.9L586,120.9z"/>
	<path class="st11" d="M605,119.9c1.8,0.2,3.1,1.8,3,3.5c0,0,0,0,0,0.1c0,0.3-0.1,0.6-0.1,0.9c-0.2,1.4-0.7,2.8-1.6,4
		c-0.9,1.3-2.5,1.9-4,1.7l0,0c-0.2,0-0.3-0.2-0.3-0.4c0,0,0,0,0,0c0-0.2,0.2-0.4,0.4-0.3c1.3,0.2,2.6-0.4,3.3-1.4
		c0.4-0.6,0.8-1.3,1-2c-0.8,0.7-1.8,0.9-2.8,0.8c-1.9-0.3-3.2-2-2.9-3.9C601.3,120.9,603,119.6,605,119.9L605,119.9z M607.2,123.8
		c0.2-1.5-0.8-2.9-2.3-3.1c-1.5-0.2-2.9,0.8-3.1,2.3c-0.2,1.5,0.8,2.9,2.3,3.1c0,0,0,0,0,0C605.6,126.3,607,125.3,607.2,123.8
		C607.3,123.8,607.3,123.8,607.2,123.8L607.2,123.8z"/>
	<path class="st11" d="M610.4,126c0.2-1.3,0.7-2.5,1.5-3.5c1-1.3,2.9-1.6,4.2-0.6c0.5,0.3,0.8,0.8,1,1.4c0.5,1.2,0.7,2.5,0.5,3.8
		c-0.2,1.3-0.7,2.5-1.5,3.5c-1,1.3-2.9,1.6-4.2,0.6c-0.5-0.3-0.8-0.8-1-1.4C610.3,128.6,610.2,127.3,610.4,126z M611.1,126.1
		c-0.2,1.1-0.1,2.3,0.4,3.4c0.4,1.2,1.6,1.8,2.8,1.5c0.5-0.2,0.9-0.5,1.2-0.9c1.5-1.8,1.9-4.3,1-6.5c-0.4-1.2-1.6-1.8-2.8-1.5
		c-0.5,0.2-0.9,0.5-1.2,0.9C611.8,123.9,611.3,125,611.1,126.1L611.1,126.1z"/>
	<path class="st11" d="M623,123.6l-1.6,0.7c-0.1,0-0.1,0-0.2,0c-0.1,0-0.2-0.1-0.3-0.2c-0.1-0.2,0-0.4,0.2-0.5c0,0,0,0,0,0l2.2-0.9
		c0.2-0.1,0.4,0,0.5,0.2c0,0.1,0,0.2,0,0.3l-1.4,9.6c0,0.2-0.2,0.3-0.4,0.3c-0.2,0-0.3-0.2-0.3-0.4L623,123.6z"/>
	<path class="st11" d="M625,132.9l5.5-3.7c1.2-0.8,1.6-2.5,0.8-3.7c0,0,0,0,0-0.1c-0.4-0.6-1.1-1.1-1.8-1.2
		c-0.7-0.1-1.4,0.1-1.9,0.4L627,125c-0.1,0.1-0.4,0.1-0.5-0.1c0,0,0,0,0,0c-0.1-0.1-0.1-0.4,0-0.5c0,0,0,0,0,0l0.6-0.4
		c0.7-0.5,1.6-0.7,2.4-0.5c1,0.1,1.8,0.7,2.3,1.5c0.5,0.7,0.7,1.6,0.6,2.4c-0.1,1-0.7,1.8-1.5,2.4l-4.7,3.2l4.9,0.7
		c0.2,0,0.3,0.2,0.3,0.4c0,0.2-0.2,0.3-0.4,0.3l-5.8-0.9h-0.1c-0.1,0-0.2-0.1-0.2-0.1C624.8,133.2,624.9,133,625,132.9z"/>
	<path class="st11" d="M650.5,127.2l-3.1,2.4c1.9,0.7,2.8,2.8,2.1,4.6c-0.6,1.6-2.2,2.5-3.9,2.3c-0.9-0.1-1.8-0.6-2.3-1.4
		c-0.2-0.1-0.2-0.4,0-0.5c0.1-0.2,0.4-0.2,0.5,0c0,0,0.1,0.1,0.1,0.1c0.4,0.6,1.1,1,1.8,1.1c1.5,0.2,3-0.8,3.2-2.3c0,0,0,0,0-0.1
		c0.2-1.5-0.8-3-2.4-3.2c-0.1,0-0.2-0.1-0.3-0.2l0,0c-0.1-0.2-0.1-0.4,0.1-0.5c0,0,0,0,0,0l3-2.3l-4-0.6c-0.2,0-0.3-0.2-0.3-0.4
		c0-0.2,0.2-0.3,0.4-0.3l4.9,0.7c0.2,0,0.3,0.2,0.3,0.4c0,0.1,0,0.1-0.1,0.2C650.5,127.2,650.5,127.2,650.5,127.2z"/>
	<path class="st11" d="M658.1,136.1l-5.7-0.8l0,0c-0.1,0-0.2,0-0.2-0.1c-0.1-0.1-0.1-0.4,0-0.5l7.1-6.6l0,0c0.1-0.1,0.3-0.2,0.5,0
		c0,0,0,0,0,0c0,0.1,0.1,0.1,0.1,0.2c0,0,0,0,0,0.1l0,0l-1,7.2l0.7,0.1c0.2,0,0.3,0.2,0.3,0.4c0,0.2-0.2,0.3-0.4,0.3l-0.7-0.1
		l-0.3,1.8c0,0.2-0.2,0.3-0.4,0.3c-0.2,0-0.3-0.2-0.3-0.4L658.1,136.1z M658.2,135.4l0.9-6.1l-5.8,5.4L658.2,135.4z"/>
	<path class="st11" d="M662.1,137.9c-0.1-0.2-0.1-0.4,0.1-0.5c0,0,0,0,0,0c0.2-0.1,0.4-0.1,0.5,0.1c0,0,0,0,0,0
		c0.5,0.6,1.1,1,1.8,1.1c1.5,0.2,3-0.8,3.2-2.4c0.2-1.5-0.8-3-2.4-3.2c-0.7-0.1-1.5,0.1-2.1,0.5c-0.2,0.1-0.4,0.1-0.5-0.1
		c0,0,0,0,0,0c0,0-0.1-0.1-0.1-0.1l0,0c0,0,0,0,0-0.1c0,0,0-0.1,0-0.1c0,0,0,0,0-0.1l1.1-4.1c0-0.1,0.1-0.2,0.2-0.2
		c0.1,0,0.2,0,0.2,0l4.9,0.7c0.2,0,0.3,0.2,0.3,0.4c0,0.2-0.2,0.3-0.4,0.3c0,0,0,0,0,0l-4.5-0.7l-0.8,3c0.6-0.2,1.2-0.3,1.8-0.2
		c1.9,0.3,3.3,2.1,3,4c0,0,0,0,0,0c-0.1,0.9-0.6,1.8-1.4,2.4c-0.8,0.6-1.7,0.8-2.7,0.7C663.5,139.1,662.6,138.6,662.1,137.9z"/>
	<path class="st11" d="M673,132.2c0.9-1.3,2.5-1.9,4-1.7c0.2,0,0.3,0.2,0.3,0.4c0,0.2-0.2,0.3-0.4,0.3c-1.3-0.1-2.6,0.4-3.3,1.4
		c-0.4,0.6-0.8,1.3-1,2c1.5-1.2,3.7-1.1,4.9,0.4c1.2,1.5,1.1,3.7-0.4,4.9c-1.5,1.2-3.7,1.1-4.9-0.4c-0.6-0.7-0.9-1.7-0.8-2.6
		c0-0.2,0-0.5,0.1-0.7C671.7,134.8,672.2,133.4,673,132.2z M672.1,136.9c0,0.1,0,0.1,0,0.2c0,0,0,0.1,0,0.1c0.1,1.6,1.4,2.7,3,2.6
		s2.7-1.4,2.6-3c-0.1-1.6-1.4-2.7-3-2.6C673.3,134.3,672.2,135.4,672.1,136.9L672.1,136.9z"/>
	
		<rect x="556.4" y="98.4" transform="matrix(0.1445 -0.9895 0.9895 0.1445 335.0729 676.303)" class="st12" width="4.5" height="92"/>
	
		<rect x="541.7" y="119.8" transform="matrix(0.1445 -0.9895 0.9895 0.1445 314.5468 668.5509)" class="st12" width="4.5" height="65.1"/>
	
		<rect x="623.2" y="54.8" transform="matrix(0.1445 -0.9895 0.9895 0.1445 458.1469 685.3397)" class="st12" width="4.5" height="45.9"/>
	<g id="freepik--u5Zjqx--inject-7">
		<path class="st3" d="M678.8,102.8l-0.7-1l-0.4-0.6c5.2-3.9,6.3-11.2,2.4-16.5c0,0,0,0,0,0c0.2-0.1,0.4-0.2,0.5-0.4l1-0.7l0,0l0,0
			c0,0,0,0,0,0.1c0.3,0.4,0.5,0.8,0.8,1.2c0.5,0.9,0.9,1.8,1.2,2.7c0.4,1.1,0.6,2.3,0.6,3.5c0,0.6,0,1.1,0,1.7
			c0,0.2-0.2,1.4-0.2,1.4c-0.1,0.4-0.2,0.7-0.3,1.1c-0.3,1-0.7,2-1.2,2.9c-0.4,0.7-0.8,1.3-1.3,1.9c-0.5,0.6-1.1,1.2-1.7,1.8
			C679.4,102.3,679.1,102.6,678.8,102.8L678.8,102.8z"/>
		<path class="st3" d="M677,87.2l1.6-1.2c1.3,1.7,2,3.8,1.9,5.9c0,3.1-1.5,6-4,7.8l-1.2-1.6C678.8,95.6,679.6,90.7,677,87.2
			L677,87.2z"/>
		<path class="st3" d="M674.2,96.7l-1.2-1.5c1.8-1.3,2.2-3.8,0.9-5.6c0,0,0,0,0-0.1l1.5-1.2C677.4,90.9,676.9,94.7,674.2,96.7
			C674.3,96.6,674.3,96.6,674.2,96.7z"/>
	</g>
</g>
<g>
	<path class="st13" d="M503,318.2c-5.6-0.9-10.2-3-14.2-6.4c-3.5-3-3.6-3-2-7.4c2-5.6,5.6-10.1,9.6-14.4c4.3-4.7,9.3-8.7,14.4-12.5
		c1.5-1.1,2.5-1,3.5,0.4c0.3,0.4,0.6,0.7,0.9,1.1c1.5,1.4,1.7,2.6-0.1,4.2c-2.2,2.1-3,5.1-3.7,8c-1.8,6.9-3.1,13.8-5.3,20.6
		c-0.6,1.7-1.2,3.4-1.9,5.1C504,317.8,503.6,318.4,503,318.2z"/>
	<path class="st13" d="M478.4,289.1c0-1.3,0.2-3.1,0.4-4.9c0.2-2.2,1.3-3.3,3.3-4.1c3.8-1.4,7.8-2.2,11.8-2.9
		c4.2-0.7,8-2.2,11.5-4.7c1.4-1,5.1,0.6,5.3,2.2c0.1,0.9-0.7,1.1-1.2,1.4c-4.8,3.4-9.3,7.2-13.4,11.4c-4.9,5.1-9.3,10.5-11.4,17.4
		c-0.1,0.4-0.3,0.9-0.6,1c-0.6,0.2-0.8-0.4-1-0.8C479.9,300.6,478.3,295.4,478.4,289.1z"/>
	<path class="st13" d="M525.4,310.3c0.3,1.5-0.3,2.2-1.2,2.9c-4.9,3.5-10.4,5.2-16.4,5.5c-1.2,0.1-2.1-0.2-1.4-1.7
		c3.1-7.7,4.6-15.8,6.5-23.8c0.7-2.8,1.4-5.5,3-7.9c1.5-2.2,2.2-2.2,3.4,0.2c3.5,7,5.1,14.5,5.9,22.2
		C525.3,308.6,525.3,309.6,525.4,310.3z"/>
	<path class="st13" d="M536.2,292.2c-0.6,6.5-3.2,12.1-7.4,16.9c-0.3,0.3-0.6,0.9-1.1,0.7c-0.6-0.2-0.5-0.9-0.6-1.4
		c-0.7-8.6-2.5-17-6.5-24.7c-0.6-1.2-0.2-1.6,0.9-2c2.9-0.8,5.6-0.4,8,1.5c2.4,1.9,4.3,4.1,6.2,6.4
		C536.3,290.5,536.3,291.3,536.2,292.2z"/>
	<path class="st13" d="M481.4,278.4c-0.9-0.2-0.5-0.8-0.3-1.3c0.8-1.8,1.9-3.4,3.1-5c2.3-3,5-5.5,8.2-7.4c0.9-0.5,1.7-0.7,2.6-0.2
		c2.9,1.4,5.8,2.9,8.5,4.7c1.6,1.1,1.6,1.4-0.1,2.5c-3.4,2.3-7.1,3.4-11.1,4.1c-3.5,0.6-6.9,1.2-10.2,2.5
		C481.9,278.2,481.7,278.3,481.4,278.4z"/>
	<path class="st13" d="M535.6,286.8c-1.1-1.2-2-2.3-3-3.3c-3.4-3.4-7.3-5-12.1-3.3c-1.2,0.4-2,0.2-2.7-0.9c-0.6-1-1.4-1.9-2.2-2.6
		c-1.2-1.1-0.7-1.7,0.4-2.4c3.6-2.2,7.4-3.6,11.6-4.1c0.7-0.1,1.3-0.1,1.8,0.5c3.8,4.4,6.2,9.5,6.7,15.3
		C536.1,286.1,535.9,286.2,535.6,286.8z"/>
	<path class="st13" d="M513.7,261.2c4.7,1.1,8.7,3.1,12.3,6.1c0.7,0.6,0.5,1.1-0.4,1.2c-4.3,0.7-8.2,2.5-11.9,4.8
		c-0.7,0.4-1.3,0.4-1.8-0.2c-0.2-0.2-0.5-0.4-0.8-0.7c-2.5-2.2-2.6-2.3-0.3-4.7c1.3-1.4,1.7-3.1,1.7-5
		C512.5,262,512.4,261,513.7,261.2z"/>
	<path class="st13" d="M506,260.6c0.8,0,1.1,0,1.4,0c3.2,0,4.2,1.5,3,4.6c-0.6,1.4-1.8,2.3-2.9,3.3c-0.6,0.5-1.1,0.2-1.7-0.1
		c-2.5-1.8-5.3-3.3-8-4.7c-0.3-0.2-0.8-0.3-0.8-0.8c0-0.6,0.6-0.6,1.1-0.8C500.8,261.1,503.6,260.5,506,260.6z"/>
</g>
<g id="freepik--Character--inject-7">
	<path class="st0" d="M516.4,344.5c0,1.2,0.6,2.3,1.6,2.8c0.9,0.5,1.8,1,2.7,1.4c-0.2-3.2-0.2-6.4,0-9.6c0.1-3.7,0.5-7.3,1-11
		c0-0.1,0.1,0,0.1,0c-0.2,3.7-0.2,7.4-0.3,11.1c-0.1,3.2,0.1,6.5,0,9.8c1,0.4,1.9,0.7,2.9,1.1c0-1.1-0.1-2.3-0.1-3.4
		c-0.1-3.4,0.1-6.8,0.2-10.2c0,0,0-0.1,0.1-0.1s0.1,0,0.1,0.1c0,0,0,0,0,0c0,3.3,0.2,6.7,0.3,10c0,1.3,0.1,2.6,0.2,3.8
		c0.7,0.2,1.3,0.4,2,0.5l1.3,0.3c0-2.2,0.1-4.5,0.1-6.7c0-3.5,0.3-7.1,0.4-10.6c0,0,0-0.1,0.1-0.1c0,0,0.1,0,0.1,0.1c0,0,0,0,0,0
		c-0.1,3.5,0.1,7.1,0.1,10.6c0,2.3,0.1,4.6,0.1,6.9c6,1.2,12.1,1.3,18.1,0.4c3.5-0.5,6.9-1.2,10.3-2.2c0.8-0.2,2.9-0.9,5-1.5
		c0-1.1,0-2.1,0-3.2c0-2.4,0-4.7-0.1-7.1c0-0.1,0.1-0.1,0.1,0c0.2,2.4,0.5,4.7,0.6,7.1c0,1,0.1,1.9,0.2,2.9c0.7-0.2,1.4-0.5,2.1-0.7
		c-0.4-4.5-0.2-9-0.3-13.4c0-0.1,0.1-0.1,0.2,0c0.3,4.4,0.9,8.8,1,13.2c0.5-0.1,0.9-0.3,1.4-0.6c1-0.8-0.2-18.5-0.4-22.6
		c-0.3-7.7-2.2-38.9-4.7-46.1c-2-6.6-7-11.9-13.4-14.4c-3.1-1.2-6.6-0.8-9.9-0.7c-15.8,0.4-20.6,11.7-21.5,31.3
		c-0.3,7.6-0.8,37.1-1.2,44.7C516.6,340.4,516.4,342.5,516.4,344.5z"/>
	<path class="st14" d="M666.6,453.5c-0.7-2.6-42.3-65.6-45.3-66.9c-0.3-0.2-21.6,13-21.6,13c-0.9,1.1-39-9.6-39-9.6l-3.4,46.5
		l70.4,3c0,0,9.1,6.2,17.5,11.3l0,0c5.2,3.2,9.8,5.8,11.1,6.3C659.9,458.2,667.3,456.1,666.6,453.5z"/>
	<path class="st3" d="M656.4,457.1c-1.3-0.4-5.9-3.1-11.1-6.3l0,0c-8.4-5.1-17.5-11.3-17.5-11.3l-15.7-0.7l-22-41.1
		c5.3,1.3,9.3,2.1,9.6,1.8c0,0,21.2-13.1,21.6-13c3,1.4,44.6,64.3,45.3,66.9S659.9,458.2,656.4,457.1z"/>
	<path class="st6" d="M667,453.6c-0.7-2.7-42.5-65.6-45.6-67c-1.2-0.5-11.5,5-21.7,13l27,40.5c0,0,26.3,16.1,29.8,17.3
		S667.7,456.3,667,453.6z"/>
	<path class="st0" d="M663.9,454.4c-7.3-10.4-35.6-52.9-42-63.7c0-0.1,0-0.1,0.1,0c7.4,10.1,35.4,52.9,42.1,63.6
		C664.2,454.5,664,454.6,663.9,454.4z"/>
	<path class="st0" d="M651.6,454.8c-1.6-2.3-2.2-5.2-1.6-8c0.5-2.5,2-4.7,4.1-6.1c0.1,0,0.1,0.1,0.1,0.1c-3.8,3.6-4.8,9.3-2.4,13.9
		c0,0,0,0.1,0,0.1C651.7,454.9,651.6,454.9,651.6,454.8C651.6,454.9,651.6,454.9,651.6,454.8z"/>
	<path class="st0" d="M630,442.7c-2.9-4.2-4.6-10.1-2.9-15c0.1-0.2,0.3-0.1,0.3,0.1c0.5,5,1.6,9.9,3.1,14.6c0.1,0.2,0,0.3-0.1,0.4
		S630.1,442.8,630,442.7z"/>
	<path class="st0" d="M633.4,445.1c-2.9-4.2-4.6-10.1-2.9-15c0.1-0.2,0.3-0.1,0.4,0.1c0.5,5,1.6,9.9,3.2,14.6c0.1,0.2,0,0.4-0.2,0.4
		S633.5,445.3,633.4,445.1L633.4,445.1z"/>
	<path class="st0" d="M636.8,447.5c-2.9-4.2-4.6-10.1-2.9-15c0.1-0.2,0.3-0.1,0.3,0.1c0.5,5,1.6,9.9,3.1,14.6c0.1,0.2,0,0.3-0.1,0.4
		S636.9,447.7,636.8,447.5z"/>
	<path class="st0" d="M640.2,449.9c-2.9-4.2-4.6-10.1-2.9-15c0.1-0.2,0.3-0.1,0.4,0.1c0.5,5,1.6,9.9,3.1,14.6c0.1,0.2,0,0.4-0.2,0.4
		C640.5,450.1,640.3,450.1,640.2,449.9z"/>
	<path class="st0" d="M613.7,400c-3.1-4.8,4.2-9.6,7.4-4.9S616.8,404.7,613.7,400z"/>
	<path class="st0" d="M627.7,450.3c1.4-4.2,1-8.9,1.1-13.3c0-0.3-0.3-0.6-0.7-0.6c-0.1,0-0.1,0-0.2,0c0-0.1-0.1-0.1-0.2,0
		c-3.7,2.9-6.5,6.7-8.2,11c-1,2.5-0.9,6.4,2.3,7.4C624.7,455.6,626.8,452.8,627.7,450.3z M624.3,452.8c-4.9,2.6-4.1-3.9-3.3-5.7
		c0.5-1.2,1.1-2.3,1.8-3.4c1.4-2.3,3-4.4,4.7-6.5c-0.2,2.1-0.2,4.3-0.3,6.5C627.1,446.2,627,451.4,624.3,452.8z"/>
	<path class="st0" d="M615,423.2c-2.5,2.2-1,5.7,0.9,7.6c3.3,3.3,7.5,5.6,12,6.8c0.1,0,0.2,0,0.2-0.1c0.3,0,0.6-0.3,0.6-0.6
		c0-0.1,0-0.1,0-0.2c-1.8-4-3.3-8.5-6.3-11.8C620.5,422.9,617.4,421.1,615,423.2z M624.5,431.2c1,1.9,1.8,3.9,2.8,5.8
		c-2.4-1.2-4.7-2.6-6.9-4.1c-1.1-0.7-2.1-1.5-3-2.4c-1.5-1.4-4.8-7,0.7-6.5C621.2,424.1,623.4,428.8,624.5,431.2L624.5,431.2z"/>
	<path class="st4" d="M572.5,380.1c0,0-59.2-27.1-85.6-26.7c-31.4,0.4-55.8,37.7-17.3,64.6c34.1,23.8,141.4,21.9,141.4,21.9
		l-25.1-45c0,0-29.7-11.5-68.5-12.7l54.2,11L572.5,380.1z"/>
	<path class="st0" d="M571.4,389c-4.7-1.2-9.4-2-14.1-2.8s-9.5-1.6-14.3-2.3c-9.5-1.4-19.1-2.4-28.7-2.9c-0.9,0-1.8-0.1-2.7-0.1
		c-0.2-0.1-0.4-0.1-0.6-0.2c-0.5-0.1-0.9-0.3-1.4-0.4c-0.9-0.2-1.7-0.4-2.6-0.6c-1.8-0.4-3.6-0.7-5.4-1.2c-0.1,0-0.2,0.1-0.1,0.2
		c1.8,0.5,3.5,1.2,5.4,1.7l1.5,0.4c-3.5,0-7.1,0-10.6,0.1c-0.1,0-0.1,0.2,0,0.2c4.8,0,9.6,0.3,14.4,0.7c4.8,0.4,9.5,0.8,14.2,1.4
		c9.6,1.2,19.1,2.6,28.6,4.3c5.3,0.9,10.7,1.9,16.1,2.5C571.7,390,571.9,389.2,571.4,389z"/>
	<path class="st0" d="M600,437.8c-1.5-2.9-2.8-5.9-4.2-8.8s-2.8-5.9-4.2-8.8c-2.8-5.9-12.9-25.7-14-27.1c-0.1-0.1-0.2,0-0.2,0.1
		c0.4,1.5,6.7,14.6,8.2,17.5c2.9,5.8,6,11.6,9,17.4c0.9,1.6,1.8,3.3,2.6,4.9s1.8,3.3,2.6,4.9C599.9,438,600.1,437.9,600,437.8z"/>
	<path class="st14" d="M460.3,453.5c0.8-2.6,44.4-64.1,47.5-65.4c0.4-0.2,21.1,13.7,21.1,13.7c0.9,1.1,39.3-8.3,39.3-8.3l1.8,46.6
		l-70.5,0.7c0,0-9.3,5.9-17.9,10.7l0,0c-5.3,3-9.9,5.5-11.3,5.9C466.8,458.5,459.5,456.1,460.3,453.5z"/>
	<path class="st3" d="M470.3,457.5c1.4-0.4,6-2.9,11.3-5.9l0,0c8.5-4.8,17.9-10.7,17.9-10.7l15.7-0.1l23.3-40.4
		c-5.4,1.1-9.4,1.8-9.6,1.5c0,0-20.8-13.9-21.1-13.7c-3.1,1.2-46.7,62.8-47.5,65.4S466.8,458.5,470.3,457.5z"/>
	<path class="st6" d="M459.9,453.6c0.8-2.7,44.7-64.2,47.8-65.4c1.2-0.5,11.3,5.3,21.2,13.7l-28.3,39.6c0,0-26.8,15.3-30.4,16.3
		S459,456.3,459.9,453.6z"/>
	<path class="st0" d="M462.9,454.5c7.6-10.1,37.3-51.7,44.1-62.3c0-0.1,0-0.1-0.1,0c-7.8,9.9-37.1,51.7-44.2,62.2
		C462.6,454.6,462.8,454.7,462.9,454.5z"/>
	<path class="st0" d="M475.2,455.4c1.7-2.3,2.4-5.2,1.9-8c-0.4-2.5-1.8-4.7-3.9-6.2c-0.1,0-0.1,0.1-0.1,0.1c3.7,3.7,4.5,9.4,1.9,14
		c0,0,0,0.1,0,0.1S475.2,455.4,475.2,455.4L475.2,455.4z"/>
	<path class="st0" d="M497.2,443.9c3-4.1,5-9.9,3.4-14.9c-0.1-0.2-0.3-0.1-0.4,0.1c-0.7,5-1.9,9.8-3.6,14.5c-0.1,0.2,0,0.3,0.2,0.4
		C497,444.1,497.2,444,497.2,443.9z"/>
	<path class="st0" d="M493.7,446.2c3-4.1,5-9.9,3.4-14.9c-0.1-0.2-0.3-0.1-0.4,0.1c-0.7,5-1.9,9.8-3.6,14.5c-0.1,0.2,0,0.3,0.2,0.4
		C493.5,446.4,493.6,446.3,493.7,446.2z"/>
	<path class="st0" d="M490.2,448.5c3-4.1,5-9.9,3.4-14.9c-0.1-0.2-0.3-0.1-0.4,0.1c-0.7,5-1.9,9.8-3.6,14.5c-0.1,0.2,0,0.3,0.2,0.4
		C490,448.7,490.1,448.6,490.2,448.5z"/>
	<path class="st0" d="M486.7,450.8c3-4.1,5-9.9,3.4-14.9c-0.1-0.2-0.3-0.1-0.4,0.1c-0.7,5-1.9,9.8-3.6,14.5c-0.1,0.2,0,0.3,0.2,0.4
		C486.5,451,486.6,450.9,486.7,450.8z"/>
	<path class="st0" d="M514.9,401.8c3.3-4.6-3.9-9.8-7.2-5.1S511.6,406.4,514.9,401.8z"/>
	<path class="st0" d="M505.1,456.2c3.2-0.9,3.4-4.7,2.5-7.3c-1.6-4.4-4.3-8.3-7.9-11.3c-0.1,0-0.1,0-0.2,0c0,0,0,0,0,0
		c-0.3-0.1-0.7,0-0.8,0.3c0,0.1,0,0.1-0.1,0.2c-0.1,4.4-0.7,9.1,0.6,13.4C500,454.1,502,457,505.1,456.2z M499.9,444.9
		c0-2.2,0.1-4.3,0-6.5c1.6,2.2,3.1,4.4,4.5,6.7c0.6,1.1,1.2,2.3,1.7,3.5c0.7,1.9,1.3,8.4-3.5,5.6
		C499.9,452.7,499.9,447.5,499.9,444.9L499.9,444.9z"/>
	<path class="st0" d="M505.5,426.4c-3.1,3.2-4.7,7.6-6.7,11.5c-0.1,0.3,0,0.7,0.4,0.8c0.1,0,0.1,0,0.2,0c0,0.1,0,0.1,0.1,0.1
		c0,0,0,0,0,0c4.6-1,8.8-3.2,12.2-6.4c2-1.9,3.6-5.4,1.1-7.6S507.3,424.5,505.5,426.4z M509.6,425.5c5.5-0.3,2,5.2,0.5,6.6
		c-1,0.8-2,1.6-3.1,2.3c-2.2,1.5-4.7,2.6-7,3.9c1.1-1.9,2-3.8,3-5.7C504.2,430.3,506.6,425.7,509.6,425.5L509.6,425.5z"/>
	<path class="st4" d="M569.9,379.2c0,0,59.6-18.4,91.5-14.8c31.2,3.5,44.3,42.5,14,64c-33,23.4-158.2,16.2-158.2,16.2l26.4-48
		c0,0,42.5-10.3,81.4-10.2l-54.5,9.1L569.9,379.2z"/>
	<path class="st0" d="M541.8,399.6c0-0.1,0-0.2,0-0.2c0-0.1,0-0.1,0-0.2s0.1-0.3,0.1-0.5c0.1-0.3,0.2-0.6,0.3-0.9s0.2-0.6,0.4-0.9
		c0.1-0.3,0.3-0.6,0.5-0.9c0,0,0,0,0.1,0l0,0h0.1h0.1c4.7-1,36.5-6.6,41.3-7.3s9.6-1.3,14.4-1.8c9.6-1.1,19.2-1.8,28.8-1.9
		c0.9,0,1.8,0,2.7,0c0.2-0.1,0.4-0.1,0.6-0.2c0.5-0.1,0.9-0.3,1.4-0.4c0.9-0.2,1.7-0.4,2.6-0.5c1.8-0.3,3.6-0.6,5.4-1
		c0,0,0.1,0.1,0.1,0.1c0,0,0,0-0.1,0.1c-1.8,0.5-3.6,1-5.4,1.5l-1.6,0.4c3.5,0.1,7.1,0.2,10.6,0.5c0.1,0,0.1,0.2,0,0.2
		c-4.8-0.1-9.6,0-14.4,0.2s-9.5,0.5-14.3,0.9c-9.6,0.9-19.2,2-28.8,3.3c-5.4,0.7-37.8,6.5-43.2,6.9h-0.1c0,0.1-0.1,0.3-0.1,0.4
		c-0.1,0.3-0.3,0.6-0.4,0.9s-0.3,0.5-0.5,0.8l-0.3,0.4l-0.1,0.2c0,0.1-0.1,0.1-0.1,0.2C541.9,399.8,541.7,399.7,541.8,399.6z"/>
	<path class="st0" d="M527.1,441.3c1.6-2.8,3-5.8,4.5-8.7s3-5.8,4.5-8.7c3-5.8,13.8-25.2,14.8-26.6c0.1-0.1,0.2,0,0.2,0.1
		c-0.5,1.5-7.2,14.4-8.7,17.2c-3.1,5.7-6.3,11.4-9.6,17c-0.9,1.6-1.9,3.2-2.8,4.8s-1.9,3.2-2.8,4.9
		C527.2,441.5,527.1,441.4,527.1,441.3z"/>
	<path class="st14" d="M547.7,320.5c-8.7,14.5-22.3,40.8-25.7,43c-12.4,8.2-32.5,24.3-36.3,28.3c-4.8,5.1,20.7,28,24.2,24.7
		c2.5-2.4,30.6-24.4,38.4-38.3c5-9,8.8-36.6,10.5-53.2C560.3,310.4,553.5,310.8,547.7,320.5z"/>
	<path class="st14" d="M513.9,413c-0.5,0.4-6.9,6.7-11.1,9.5c-3.2,2.1-12.5,8-15.2,4.7c-1.8-2.2,3.2-6.3,6.8-9.3
		c1.9-1.6,3.8-4.6,2.7-5.8c-1.9-2.1-6.6,2.1-9.6,5.4c-5.7,6.3-12.8,16.6-18.2,14.4c-2-0.8-0.9-3.9,1-7.1c-3.6,4.2-7.6,8-9.9,7.2
		c-1.3-0.5-1.7-1.6-1.5-3c-1,0.9-2.4,1.1-3.6,0.6c-1.9-1.1-1.9-3.5-1.1-6.3c-0.6,0.1-1.2-0.1-1.6-0.5c-4.6-3.7,6.6-22,11.5-25
		c14.5-8.7,31.2-13.2,31.2-13.2C503,387.4,514,413,513.9,413z"/>
	<path class="st0" d="M486.4,405.9c-3.5,1.8-6.7,4.3-9.2,7.3c-3.1,3.9-4.8,7.8-7.2,11.9c-0.1,0.1,0.1,0.2,0.2,0.1
		c1.1-2,6-9.6,7.2-11.4C479.8,410.6,482.8,407.9,486.4,405.9L486.4,405.9z"/>
	<path class="st0" d="M481.3,400.1c-3.9,2.3-7.5,5-10.8,8.1c-3.5,3.5-5.7,8-7.8,12.3c-1.3,2.6-2.5,5.3-3.7,7.9
		c0,0.1,0.1,0.2,0.2,0.1c2.2-4.5,4.5-8.9,6.9-13.3c2.2-4,5.3-7.6,8.9-10.5C477,403.2,479.2,401.7,481.3,400.1
		C481.4,400.2,481.4,400.1,481.3,400.1z"/>
	<path class="st0" d="M475.1,395.7c-3.7,2.1-7,3.9-9.9,7.2c-3.8,4.3-6.8,10.5-7.9,12.7c-1.2,2.4-2.2,4.9-3.3,7.4
		c0,0.1,0.1,0.2,0.2,0.1c2.4-5.5,5.2-10.8,8.4-15.9c1.4-2.5,3.3-4.7,5.4-6.6C470.3,398.7,472.6,397.1,475.1,395.7
		C475.1,395.8,475.1,395.7,475.1,395.7z"/>
	<path class="st6" d="M490.2,384.5l26.8,30.7c0,0,25-25.4,32.5-36.4c3.1-4.6,9.4-39.7,10.3-51.2c1.1-14.1-4.4-20.6-12.3-8.4
		c-6.8,10.6-24.8,41.8-25.9,42.5L490.2,384.5z"/>
	<path class="st0" d="M499,382.8c10.8,10.1,20.6,22.3,22.5,24.3c0.1,0.1-0.1,0.2-0.2,0.1c-1.7-2.1-14.5-14.8-22.5-24.3
		C498.7,382.9,498.9,382.7,499,382.8z"/>
	<path class="st8" d="M559.9,327.5c-0.9,11.5-7.2,46.6-10.3,51.2c-7.5,11-32.5,36.4-32.5,36.4l-14.6-16.7l51.2-85.4
		C558,311.2,560.7,317.4,559.9,327.5z"/>
	<path class="st6" d="M613.8,379.5l-75.7,9.7l1.1-24.7c0,0-6.8-4.6-4.3-15.2c1.6-6.9,10.5-23.6,15.2-30.7
		c11.4-17.2,21.4-9.4,25.5-5.8C591.2,326.8,613.8,379.5,613.8,379.5z"/>
	<path class="st0" d="M560.8,362.5c-3.3,0.1-6.7,0.4-10,0.9c-1.6,0.3-3.2,0.7-4.8,1.1c-0.8,0.2-1.6,0.4-2.4,0.5
		c-0.8,0.2-1.7,0.3-2.6,0.3c-0.1,0-0.1,0.1,0,0.1c0.8,0.1,1.6,0.1,2.4,0.1c0.8,0,1.6-0.1,2.4-0.3c1.7-0.3,3.3-0.6,5-1
		c3.3-0.6,6.7-1.2,10-1.6C561,362.8,561,362.5,560.8,362.5z"/>
	<path class="st0" d="M568.8,366c-2.7-0.5-5.4-0.8-8.2-1c-1.4-0.1-2.7-0.1-4.1,0l-2,0.1c-0.7,0-1.4,0.2-2.2,0.2
		c-0.1,0-0.1,0.1,0,0.1c0.7,0,1.4,0.1,2,0.1l2,0.1c1.4,0.1,2.7,0.1,4.1,0.2c2.8,0.1,5.5,0.2,8.2,0.4
		C568.9,366.2,568.9,366,568.8,366z"/>
	<path class="st14" d="M563.3,310.6c0.3,1.4-2,12.5-8,14.9c-2,0.8-6.7-9.7-6.7-9.7l-0.5-0.7l-7.3-9.7l9-13.9l1.3-1.9
		c0,0,1.8,2.8,4.1,6.3c0.1,0.2,0.2,0.3,0.3,0.5s0.3,0.4,0.4,0.6c0.3,0.5,0.7,1,1,1.6l0.8,1.2c0.3,0.4,0.5,0.9,0.8,1.3
		C560.3,304.1,561.9,307.3,563.3,310.6z"/>
	<path class="st0" d="M555.2,295.9c0.6,7.1-2,14.2-7,19.2l-7.3-9.7l9-13.9l1.3-1.9C551.2,289.6,553,292.4,555.2,295.9z"/>
	<path class="st14" d="M521.4,290.1c0.7,21.3,13.6,23.3,18.2,23.1c4.2-0.1,18.3-1.2,19.8-22.4s-8.7-27.6-18.2-27.8
		S520.7,268.8,521.4,290.1z"/>
	<path class="st0" d="M525.4,289.9c0.5-0.2,0.9-0.4,1.3-0.6c0.5-0.2,0.9-0.5,1.2-0.9c0.1-0.3,0.1-0.7-0.2-0.9
		c-0.6-0.4-1.3-0.4-1.9,0c-0.6,0.3-1.2,0.7-1.5,1.3c-0.2,0.4,0,0.9,0.5,1C525,289.9,525.2,289.9,525.4,289.9z"/>
	<path class="st0" d="M539.2,287.9c-0.5,0-1,0-1.5,0c-0.5,0.1-1-0.1-1.5-0.3c-0.3-0.2-0.3-0.6-0.2-0.9c0.4-0.6,1.1-0.9,1.7-0.8
		c0.7,0,1.4,0.2,1.9,0.6c0.3,0.3,0.3,0.8-0.1,1.1C539.6,287.8,539.4,287.9,539.2,287.9z"/>
	<path class="st0" d="M529,294.7c0,0-0.1,0.1-0.1,0.1c0.3,1.4,0.4,3.1-0.8,3.8c0,0,0,0.1,0,0.1C529.6,298.2,529.5,296,529,294.7z"/>
	<path class="st0" d="M527.4,293.5c-2.3,0.2-1.7,4.9,0.5,4.7S529.3,293.3,527.4,293.5z"/>
	<path class="st0" d="M526.5,293.9c-0.3,0.3-0.6,0.8-1.1,0.9s-1-0.3-1.3-0.8c0,0-0.1,0-0.1,0.1c0.1,0.9,0.5,1.8,1.4,1.8
		s1.3-0.8,1.3-1.7C526.8,294,526.6,293.8,526.5,293.9z"/>
	<path class="st0" d="M537.1,293.4c0,0,0.1,0,0.1,0.1c0.2,1.4,0.7,3,2,3.3c0,0,0,0.1,0,0.1C537.6,297,537,294.8,537.1,293.4z"/>
	<path class="st0" d="M538.1,291.7c2.3-0.6,3.2,4,1.1,4.5S536.2,292.2,538.1,291.7z"/>
	<path class="st0" d="M539.1,291.8c0.4,0.2,0.9,0.5,1.3,0.5s0.8-0.6,1-1.2c0-0.1,0.1,0,0.1,0c0.2,0.9,0.1,1.9-0.7,2.2
		s-1.5-0.3-1.8-1.1C538.9,292,539,291.8,539.1,291.8z"/>
	<path class="st0" d="M539.4,304.3c-0.2,0.4-0.4,1-0.9,1.2c-0.5,0.1-1.1,0.2-1.6,0.1c0,0-0.1,0.1,0,0.1c0.6,0.4,1.3,0.5,2,0.2
		c0.5-0.3,0.8-0.9,0.7-1.5C539.6,304.3,539.5,304.3,539.4,304.3z"/>
	<path class="st0" d="M532.3,300.6c0,0,0.2,2.2,0.4,3.2c0,0.1,0.3,0.1,0.6,0l0,0c1.8-0.1,3.4-1.1,4.2-2.8c0-0.1-0.1-0.2-0.2-0.1
		c-1.1,1.2-2.5,1.9-4,2.2c-0.1-0.3-0.2-3.7-0.4-3.7c-0.8,0.2-1.5,0.6-2.1,1c-0.5-4.5-0.4-9.1-1-13.6c0-0.2-0.3-0.2-0.3,0
		c-0.5,4.8,0,10,0.4,14.7C530.1,302.1,532,300.9,532.3,300.6z"/>
	<path class="st0" d="M533.4,303.3c0.7,0.7,1.6,1.2,2.6,1.5c0.5,0.1,1.1,0.1,1.6-0.1c1.1-0.5,1-1.5,0.6-2.4
		c-0.2-0.5-0.4-0.9-0.7-1.3C536.4,302.1,535,302.9,533.4,303.3z"/>
	<path class="st15" d="M536,304.7c0.5,0.1,1.1,0.1,1.6-0.1c1.1-0.5,1-1.5,0.6-2.4C537,302.4,536.1,303.5,536,304.7z"/>
	<path class="st0" d="M558.9,292.6c-3.9,1.1-6.4-7.9-6.4-7.9s-17.6-0.3-21.2-14c-1.3,6-4.8,11.3-9.9,14.7c0,0-1.8-15.4,9.9-20.2
		c0,0,14.2-7.8,24.5,2.9S561.5,291.8,558.9,292.6z"/>
	<path class="st0" d="M531.1,269.6c0.1,2.2,0.7,4.3,1.7,6.2c1,2,2.4,3.7,4.1,5.1c0.4,0.4,0.9,0.7,1.3,1l0.7,0.5
		c0.2,0.1,0.5,0.3,0.7,0.4c0.5,0.2,1,0.5,1.5,0.7s1,0.4,1.5,0.5c0.3,0.1,0.5,0.2,0.8,0.3l0.8,0.2l1.6,0.3c1.1,0.1,2.2,0.2,3.2,0.3
		c-1-0.3-2.1-0.4-3.1-0.7l-1.5-0.5l-0.8-0.2l-0.7-0.3l-1.5-0.6c-0.5-0.2-0.9-0.5-1.4-0.8l-0.7-0.4l-0.6-0.5
		c-0.4-0.3-0.9-0.6-1.2-0.9c-1.6-1.3-3-2.9-4.1-4.7c-0.5-0.9-1-1.9-1.4-2.8C531.7,271.7,531.3,270.7,531.1,269.6z"/>
	<path class="st14" d="M559.5,298c-0.3,0.2-0.6,0.3-0.9,0.4c-0.3,0.1-0.7,0.2-1,0.2c-0.4,0-0.9,0-1.3-0.2c-0.3-0.1-0.6-0.3-0.9-0.5
		c-0.4-0.3-0.7-0.6-1-1l0.1-5.8c0,0,3.3-7.4,6.6-6.3S562.8,296.1,559.5,298z"/>
	<path class="st0" d="M560.6,287.8C560.6,287.8,560.6,287.8,560.6,287.8C560.6,287.8,560.6,287.8,560.6,287.8
		c-2.3,1.5-3.1,4.1-3.6,6.6c0.4-1,1.5-1.6,2.6-1.2c0.1,0,0.2,0.1,0.3,0.1c0,0,0.1,0.1,0,0.1c0,0,0,0,0,0c-0.9-0.1-1.8,0.4-2.3,1.2
		c-0.3,0.7-0.6,1.4-0.8,2.1c-0.1,0.2-0.5,0.2-0.5-0.1c0,0,0,0,0-0.1C555.7,293.5,557.3,288.7,560.6,287.8z"/>
	<path class="st14" d="M567.4,323.4c-1.4,16.8-3.1,44.7-5.7,47.9c-9.3,11.6-23.4,33.2-25.7,38.1c-3,6.4,28.4,20.2,30.7,16
		c1.7-3,21.5-32.8,24.6-48.3c2-10.1-5.8-37.1-10.7-53C576,308.6,568.3,312.6,567.4,323.4z"/>
	<path class="st14" d="M533.2,408.2c-8.5,6.5-9.7,9.5-19.7,11.2c-6.6,1.1-8.7,5.8-2.1,8c10.8,3.6,23.5-2.5,27.3-5.9L533.2,408.2z"/>
	<path class="st14" d="M560.2,395.3c0,0-13,3.8-22.8,9.9c-6.7,4.2-20.3,14.9-19.8,38.5c0.1,5.6,4.3,13.5,7.4,4.3
		c2.2-6.5,1.6-11.4,3.6-15c0,0,6.5,9.4,12.1,9.1c4.9-0.3,9.8-1,14.6-2c0-0.9,0-1.8-0.1-2.8c5.1-2.6,9.2-6.8,11.6-11.9L560.2,395.3z"
		/>
	<path class="st14" d="M531.6,410.2c-1.2,4-3.7,12.4-3.2,20c0.5,8.5,3.6,24.6,9.8,24.2c4.6-0.3,3.9-6.6,3.9-6.6s2.7,6.4,6.8,5.2
		c3.7-1.1,2.9-5.9,2.9-5.9s2.3,3.6,5.7,1.9c4.1-2.1-1.5-9.3,0.8-14.9C558.9,432.9,531.6,410.2,531.6,410.2z"/>
	<path class="st0" d="M537.2,428.2c-0.5,3.9,0.5,13.1,4.8,19.5c0.1,0.1,0.2,0.1,0.2,0C539.8,441.5,538.1,434.9,537.2,428.2
		C537.3,428.2,537.2,428.2,537.2,428.2z"/>
	<path class="st0" d="M545.8,428c-0.1,3.4,1.4,12.9,5.9,19.2c0.1,0.1,0.3,0.1,0.2,0c-2.7-6.2-4.7-12.6-6-19.2H545.8z"/>
	<path class="st0" d="M528.5,433c-1.7,3.2-2.1,6-2.7,9.4c-0.3,1.7-0.7,3.4-1.1,5.1c-0.4,1.5-1.1,3.8-3,4c-1,0-2-0.6-2.5-1.5
		c-0.7-1.3-1.2-2.7-1.5-4.1c0-0.1-0.1,0-0.1,0c0.2,1.3,0.5,2.7,1,3.9c0.3,0.9,0.9,1.6,1.7,2.1c1.7,1,3.5-0.5,4.2-2
		c0.4-0.9,0.8-1.9,1-2.9c0.2-0.9,0.4-1.9,0.6-2.8c0.4-2,0.6-3.9,1-5.9c0.4-1.9,0.8-3.7,1.4-5.5C528.7,433,528.7,432.9,528.5,433
		C528.6,432.9,528.6,433,528.5,433z"/>
	<path class="st0" d="M532.1,446.6c-1.4-4.5-2.6-9-3.5-13.6c0,0,0,0-0.1,0c0,0,0,0,0,0c-0.1,3.7,1.7,11.5,2.5,13.8s2,5,3.7,6.6
		c2.6,2.5,4.7,1.3,5.5,0.8c0.9-0.6,1.5-1.5,1.8-2.5c0.3-1.3,0.3-2.5,0.1-3.8c0-0.1-0.1-0.1-0.1,0c0.1,1.9-0.3,4.4-1.9,5.6
		c-0.7,0.6-1.5,0.8-2.4,0.8c-1-0.2-1.9-0.8-2.5-1.6C533.9,450.8,532.8,448.8,532.1,446.6z"/>
	<path class="st6" d="M538.1,401l35,20.8c0,0,15.9-31.8,19.6-44.6c1.5-5.4-6.9-40.1-10.2-51.1c-3.6-12.3-11.4-21.5-15.5-4.1
		c-2.9,12.2-5.2,46.6-6,47.6S538.1,401,538.1,401z"/>
	<path class="st0" d="M584.5,397.5c2.5-6.4,5.9-13.9,7.7-20.4c0.6-4.2-0.4-8.6-1-12.9c-1.5-8.6-3.5-17.1-5.5-25.6l-2-8.5
		c1.7,5.6,3.3,11.2,4.7,16.9s2.7,11.4,3.7,17.1c0.6,4.4,1.6,8.8,0.9,13.2C591,384.3,587.7,390.9,584.5,397.5L584.5,397.5z"/>
	<path class="st0" d="M585.4,337c-0.3-2-0.1-4-0.3-5.9C585.8,332.9,585.9,335,585.4,337z"/>
	<path class="st0" d="M546.1,396.4c13.2,6.5,26.1,15.4,28.5,16.8c0.1,0.1,0,0.2-0.1,0.2c-2.2-1.5-18.1-10-28.5-16.8
		C545.9,396.5,546,396.3,546.1,396.4z"/>
	<path class="st0" d="M547,388.4c4.3-6.5,8.7-12.8,13.1-19.1c0.3-0.5,0.5-1.1,0.5-1.6c0.3-1.9,0.6-3.8,0.8-5.7
		c1-7.4,1.9-15.6,2.8-23l1-7.7c-0.1,2.6-0.3,5.1-0.5,7.7c-0.6,7.5-1.4,15.7-2.3,23.1c-0.4,2.5-0.5,5.2-1.5,7.5
		C556.4,375.9,551.8,382.2,547,388.4L547,388.4z"/>
	<path class="st0" d="M564,332.3c0.4,2.1,0.3,4.3,0.7,6.4C563.8,336.7,563.5,334.5,564,332.3z"/>
	
		<rect x="466.4" y="453.9" transform="matrix(1 -7.155789e-03 7.155789e-03 1 -3.2497 3.6736)" class="st5" width="90.7" height="4.1"/>
	<polygon class="st16" points="466.4,454.3 466.4,458.3 528.1,457.9 524.9,453.8 	"/>
	<polygon class="st16" points="515.6,458 436.2,458.5 424.4,402.6 503.7,402.1 	"/>
	<polygon class="st5" points="511.9,458 432.5,458.6 420.6,402.6 500,402.1 	"/>
	<path class="st3" d="M459.1,428.3c-0.1,2.6,1.7,5.2,4,5.6s4.2-1.3,4.2-4s-1.7-5.2-4-5.6S459.2,425.6,459.1,428.3z"/>
</g>
<g>
	<path class="st13" d="M263.3,319.1c-1.1,0.1-2-0.2-2.9-0.7c-2.5-1.6-5-3.1-7.2-5.2c-0.7-0.6-1.4-0.9-2.3-0.7c-4,0.9-8,0.8-12,0
		c-0.9-0.2-1.4,0.1-1.8,0.9c-0.5,1.1-1.3,2.1-2,3.1c-2.6,3.4-6.5,4.2-10.1,1.9c-3.9-2.4-6.2-5.9-5.9-10.6c0.2-2.9,1.7-5.4,3.3-7.7
		c0.2-0.3,0.4-0.6,0.7-0.8c0.5-0.6,0.4-0.9-0.3-1.1c-3.5-0.9-4.5-4.4-4.1-7.1c0.4-2.9,1.7-5.5,3.2-7.9c2.3-3.8,5-7.3,8.4-10.2
		c0.7-0.6,0.8-1,0.3-1.8c-1.9-2.9-2.7-6.1-2.3-9.6c0.1-0.7-0.1-1.2-0.6-1.7c-2-2-3-4.4-2.7-7.3c0.4-3.2,3.3-5.3,6.8-4.7
		c1.3,0.2,2.5,0.6,3.5,1.4c0.6,0.4,1.1,0.4,1.6,0.1c5.1-2.5,10.3-2.4,15.5-0.1c0.7,0.3,1.2,0.3,1.9-0.1c1-0.8,2.2-1.1,3.4-1.3
		c4.3-0.6,7.4,2.7,6.7,6.9c-0.3,1.9-1.1,3.6-2.5,4.9c-0.5,0.5-0.7,1.1-0.6,1.8c0.4,3.4-0.4,6.6-2.2,9.5c-0.5,0.8-0.4,1.3,0.2,1.9
		c3.9,4.2,7.2,8.8,9.2,14.2c0.8,2.1,1.4,4.3,0.9,6.6c-0.3,1.3-0.8,2.6-1.9,3.3c-1,0.7-0.6,1.1,0,1.8c1.5,2,3.6,3.7,4.2,6.3
		c1.2,4.7-1,10.9-5.6,13.3C265.2,319,264.3,319.2,263.3,319.1z"/>
</g>
<g>
	<path class="st13" d="M374.5,310.8c-8.7,0-17.5,0-26.2,0c-1.2,0-1.2,0-1.3,1.2c0,1.1,0,2.2,0,3.3c0,1.9-0.9,2.8-2.8,2.9
		c-1.7,0.1-3.5,0-5.2,0c-1.2,0-2.4,0-3.6,0c-2.2,0-3.1-1-3.1-3.1c0-8,0-15.9,0-23.9c0-1.7-0.1-3.5,0.3-5.2c0.4-1.8,1.2-3.4,2.4-4.8
		c1.1-1.3,2.2-2.6,3.4-3.9c0.4-0.5,0.4-0.7-0.3-0.8c-1.6-0.4-3.2-0.8-4.8-1.3c-1.6-0.5-2.6-1.8-2.5-3.3c0.2-1.6,1.4-2.7,3.1-2.8
		c1.7-0.1,3.4-0.1,5.1,0.1c1.1,0.1,2,0.5,2.7,1.3c0.8,0.8,0.8,0.8,1.3-0.3c1.6-3.5,3.3-6.9,5.2-10.3c1.8-3.4,4.6-4.9,8.2-5.3
		c8.1-1,16.3-1,24.5-0.8c3.4,0.1,6.8,0.2,10.2,0.6c1.6,0.2,3.2,0.5,4.8,0.9c1.5,0.4,2.6,1.4,3.5,2.6c2.3,3.1,3.9,6.6,5.5,10.1
		c0.4,0.8,0.8,1.7,1.1,2.5c0.2,0.5,0.5,0.6,0.9,0.2c1.3-1.4,2.9-1.7,4.7-1.6c1.3,0.1,2.6-0.1,3.9,0.1c1.5,0.2,2.5,1.3,2.7,2.7
		c0.2,1.3-0.7,2.7-2.1,3.2c-1.6,0.5-3.3,1-4.9,1.4c-0.8,0.2-0.9,0.4-0.3,1c1.1,1.2,2.2,2.5,3.2,3.7c1.7,2,2.6,4.4,2.7,7.1
		c0,9,0,17.9,0,26.9c0,1.9-0.8,2.9-2.8,3c-3.1,0.1-6.2,0.1-9.3,0c-1.9-0.1-2.7-1.1-2.7-3c0-1.1,0-2.2,0-3.3c0-0.8-0.2-1.1-1.1-1.1
		c-6.2,0-12.4,0-18.6,0C379.7,310.8,377.1,310.8,374.5,310.8z M374.8,273.3c3.4,0,6.8-0.1,10.2,0c2.6,0.1,5.3,0.3,7.9,0.4
		c3.1,0.2,6.2,0.4,9.3,0.8c0.6,0.1,1,0,0.6-0.7c-2.1-4.4-4.3-8.9-6.8-13.1c-0.5-0.8-1.1-1.3-2.1-1.5c-3.3-0.7-6.8-0.9-10.2-1
		c-6.2-0.2-12.3-0.3-18.5,0c-3.2,0.1-6.4,0.3-9.5,0.9c-1.5,0.3-2.5,1-3.2,2.3c-2.2,4-4.3,8-6.2,12.1c-0.1,0.3-0.5,0.6-0.3,0.9
		c0.2,0.3,0.6,0.1,1,0.1c2.4-0.2,4.9-0.5,7.3-0.7C361.1,273.4,368,273.2,374.8,273.3z M345.1,293.8c1.2,0.1,2.3-0.2,3.4-0.7
		c1.2-0.7,1.8-1.6,1.8-3c0-3.1-2.2-6.5-6.1-6.9c-2.6-0.3-4.9,1.2-5.8,3.8c-0.7,2.2,0.3,4.7,2.5,5.9
		C342.2,293.5,343.6,293.8,345.1,293.8z M403.9,293.7c1,0.1,1.9-0.1,2.9-0.4c2.6-0.8,4.4-3.2,4.1-5.5c-0.4-2.7-2.5-4.7-5.2-4.8
		c-3.7-0.1-6.9,3-6.9,6.8c0,1.6,0.7,2.6,2.1,3.3C401.8,293.6,402.8,293.8,403.9,293.7z M374.5,296.4c-2.9,0-5.8,0-8.6,0
		c-0.8,0-1.2,0.3-1.2,1.2c0,0.9,0,1.8,0,2.7c0,0.8,0.3,1.1,1.1,1.1c5.8,0,11.6,0,17.5,0c0.7,0,1.1-0.4,1.1-1.1c0-0.8,0-1.7,0-2.5
		c0-1.2-0.2-1.4-1.4-1.4C380.1,296.4,377.3,296.4,374.5,296.4z"/>
</g>
<path d="M304.4,839c0.8-5.4,4.8-4.8,8.2-5.2c1.7-0.2,2.3,1,2.8,2.2c0.6,1.4,0.9,3.3-0.3,4.2c-3.7,2.7-2.1-2.5-3.9-2.8
	c-1.6-1.1,1.4,8.2-3.1,1.5c-0.8-1.2-0.5,0.3-0.7,0.5c-3,3.2-6.7,2.5-9.3-2.4c0.2,4.4-2.6,4.1-4.9,4.3c-1.4,0.2-2.1-0.5-1.8-2.1
	c0.2-1.3-1.2-3,0.8-3.9c1.4-0.6,2.1,0.3,2.7,2.2c0.5-1.9,0.9-3.2,1.5-5.4C298,836.1,303.8,833.4,304.4,839z"/>
</svg>
